<svg width="2000" height="2000" viewBox="0 0 2000 2000" fill="none" xmlns="http://www.w3.org/2000/svg">
<g id="com">
<g id="1519">
<path id="Vector" d="M445.5 663C445.5 663 403.5 663 346 663V805.5L445.331 751C445.331 739 445.5 663 445.5 663Z" fill="#E10615"/>
<path id="1" d="M377.744 736V726.568H390.488V697.12L377.744 702.376V692.584L394.592 685.6H401.576V726.568H413.96V736H377.744Z" fill="#FFFBFB"/>
</g>
<g id="1513">
<path id="Vector_2" d="M1079.5 407C1079.5 407 1037.5 407 980 407V549.5L1079.33 495C1079.33 483 1079.5 407 1079.5 407Z" fill="#E10615"/>
<path id="2" d="M1011.53 480V472.08L1032.84 450.984C1033.66 450.216 1034.3 449.472 1034.78 448.752C1035.26 447.984 1035.62 447.216 1035.86 446.448C1036.1 445.68 1036.22 444.912 1036.22 444.144C1036.22 442.512 1035.5 441.168 1034.06 440.112C1032.67 439.008 1030.92 438.456 1028.81 438.456C1026.55 438.456 1024.44 438.936 1022.47 439.896C1020.5 440.808 1018.37 442.392 1016.06 444.648L1009.87 437.088C1012.75 434.352 1015.8 432.288 1019.02 430.896C1022.28 429.504 1025.66 428.808 1029.17 428.808C1032.77 428.808 1035.89 429.432 1038.53 430.68C1041.22 431.88 1043.3 433.584 1044.79 435.792C1046.28 437.952 1047.02 440.496 1047.02 443.424C1047.02 445.008 1046.78 446.544 1046.3 448.032C1045.87 449.472 1045.18 450.888 1044.22 452.28C1043.26 453.672 1042.01 455.112 1040.47 456.6L1025.93 470.64L1047.74 470.568V480H1011.53Z" fill="#FFFBFB"/>
</g>
<g id="1514">
<path id="Vector_3" d="M1104.5 736C1104.5 736 1062.5 736 1005 736V878.5L1104.33 824C1104.33 812 1104.5 736 1104.5 736Z" fill="#E10615"/>
<path id="3" d="M1053.88 809.792C1049.85 809.792 1046.08 809.072 1042.58 807.632C1039.12 806.192 1036.26 804.2 1034.01 801.656L1041.5 794.744C1043.37 796.76 1045.17 798.152 1046.9 798.92C1048.67 799.688 1050.95 800.072 1053.74 800.072C1055.56 800.072 1057.14 799.832 1058.49 799.352C1059.88 798.824 1060.94 798.104 1061.66 797.192C1062.42 796.232 1062.81 795.128 1062.81 793.88C1062.81 792.776 1062.52 791.84 1061.94 791.072C1061.42 790.304 1060.65 789.704 1059.64 789.272C1058.68 788.84 1057.53 788.624 1056.18 788.624H1049.7V779.48H1055.03C1057.1 779.48 1058.7 779 1059.86 778.04C1061.01 777.032 1061.58 775.64 1061.58 773.864C1061.58 772.664 1061.22 771.608 1060.5 770.696C1059.83 769.736 1058.9 768.992 1057.7 768.464C1056.54 767.936 1055.2 767.672 1053.66 767.672C1051.22 767.672 1049.13 768.104 1047.4 768.968C1045.72 769.784 1043.9 771.272 1041.93 773.432L1034.37 766.592C1036.77 763.856 1039.7 761.72 1043.15 760.184C1046.66 758.6 1050.3 757.808 1054.1 757.808C1057.79 757.808 1061.03 758.432 1063.82 759.68C1066.6 760.88 1068.78 762.584 1070.37 764.792C1071.95 766.952 1072.74 769.472 1072.74 772.352C1072.74 775.088 1071.86 777.488 1070.08 779.552C1068.3 781.616 1066 783.056 1063.17 783.872C1066.48 784.496 1069.12 785.792 1071.09 787.76C1073.06 789.68 1074.04 792.032 1074.04 794.816C1074.04 797.696 1073.18 800.264 1071.45 802.52C1069.72 804.776 1067.34 806.552 1064.32 807.848C1061.3 809.144 1057.82 809.792 1053.88 809.792Z" fill="#FFFBFB"/>
</g>
<g id="1515">
<path id="Vector_4" d="M1365.5 656C1365.5 656 1323.5 656 1266 656V798.5L1365.33 744C1365.33 732 1365.5 656 1365.5 656Z" fill="#E10615"/>
<path id="4" d="M1320.14 729V717.696H1294.65V708.552L1318.62 678.6H1330.86V708.264H1336.48V717.696H1330.86V729H1320.14ZM1306.53 708.264H1320.14V691.416L1306.53 708.264Z" fill="#FFFBFB"/>
</g>
<g id="1516">
<path id="Vector_5" d="M1319.5 1098C1319.5 1098 1277.5 1098 1220 1098V1240.5L1319.33 1186C1319.33 1174 1319.5 1098 1319.5 1098Z" fill="#E10615"/>
<path id="5" d="M1268.09 1171.79C1261.03 1171.79 1254.89 1169.54 1249.66 1165.02L1256.28 1157.32C1258.39 1159.05 1260.43 1160.3 1262.4 1161.06C1264.37 1161.83 1266.46 1162.22 1268.66 1162.22C1270.44 1162.22 1271.98 1161.93 1273.27 1161.35C1274.57 1160.73 1275.58 1159.86 1276.3 1158.76C1277.06 1157.66 1277.45 1156.38 1277.45 1154.94C1277.45 1152.83 1276.56 1151.08 1274.78 1149.69C1273.06 1148.3 1270.85 1147.6 1268.16 1147.6C1266.82 1147.6 1265.47 1147.82 1264.13 1148.25C1262.78 1148.63 1261.39 1149.23 1259.95 1150.05L1251.96 1147.67L1253.18 1120.6H1286.16V1130.03H1262.98L1262.47 1140.98C1264.2 1140.16 1265.83 1139.63 1267.37 1139.39C1268.9 1139.15 1270.39 1139.03 1271.83 1139.03C1275.24 1139.03 1278.22 1139.68 1280.76 1140.98C1283.3 1142.22 1285.27 1144 1286.66 1146.3C1288.1 1148.61 1288.82 1151.3 1288.82 1154.37C1288.82 1157.82 1287.96 1160.87 1286.23 1163.51C1284.5 1166.1 1282.08 1168.14 1278.96 1169.63C1275.84 1171.07 1272.22 1171.79 1268.09 1171.79Z" fill="#FFFBFB"/>
</g>
<g id="1517">
<path id="Vector_6" d="M1634.5 1037C1634.5 1037 1592.5 1037 1535 1037V1179.5L1634.33 1125C1634.33 1113 1634.5 1037 1634.5 1037Z" fill="#E10615"/>
<path id="6" d="M1586.4 1110.79C1581.98 1110.79 1578.1 1109.74 1574.74 1107.62C1571.42 1105.51 1568.83 1102.58 1566.96 1098.84C1565.14 1095.05 1564.22 1090.63 1564.22 1085.59C1564.22 1080.22 1565.23 1075.54 1567.25 1071.55C1569.31 1067.52 1572.17 1064.4 1575.82 1062.19C1579.51 1059.94 1583.81 1058.81 1588.7 1058.81C1591.54 1058.81 1594.34 1059.31 1597.13 1060.32C1599.96 1061.28 1602.26 1062.6 1604.04 1064.28L1597.63 1072.2C1596.24 1071 1594.75 1070.14 1593.17 1069.61C1591.63 1069.03 1589.86 1068.74 1587.84 1068.74C1585.1 1068.74 1582.8 1069.42 1580.93 1070.76C1579.06 1072.1 1577.64 1074.05 1576.68 1076.59C1575.72 1079.14 1575.24 1082.26 1575.24 1085.95C1576.82 1083.7 1578.74 1081.94 1581 1080.7C1583.26 1079.45 1585.63 1078.82 1588.13 1078.82C1591.44 1078.82 1594.37 1079.47 1596.91 1080.77C1599.46 1082.06 1601.45 1083.86 1602.89 1086.17C1604.33 1088.47 1605.05 1091.11 1605.05 1094.09C1605.05 1097.26 1604.23 1100.11 1602.6 1102.66C1601.02 1105.15 1598.81 1107.14 1595.98 1108.63C1593.19 1110.07 1590 1110.79 1586.4 1110.79ZM1586.26 1087.46C1584.19 1087.46 1582.27 1087.85 1580.5 1088.62C1578.77 1089.38 1577.23 1090.46 1575.89 1091.86C1576.37 1093.78 1577.06 1095.46 1577.98 1096.9C1578.94 1098.29 1580.09 1099.37 1581.43 1100.14C1582.78 1100.9 1584.24 1101.29 1585.82 1101.29C1587.41 1101.29 1588.82 1101 1590.07 1100.42C1591.32 1099.8 1592.3 1098.96 1593.02 1097.9C1593.79 1096.85 1594.18 1095.65 1594.18 1094.3C1594.18 1092.96 1593.84 1091.78 1593.17 1090.78C1592.5 1089.72 1591.56 1088.9 1590.36 1088.33C1589.21 1087.75 1587.84 1087.46 1586.26 1087.46Z" fill="#FFFBFB"/>
</g>
<g id="1518">
<path id="Vector_7" d="M1626.5 1258C1626.5 1258 1584.5 1258 1527 1258V1400.5L1626.33 1346C1626.33 1334 1626.5 1258 1626.5 1258Z" fill="#E10615"/>
<path id="7" d="M1562.63 1331L1584.23 1290.39H1556.87V1280.6H1596.26V1288.88L1575.95 1331H1562.63Z" fill="#FFFBFB"/>
</g>
</g>
</svg>
